<svg xmlns="http://www.w3.org/2000/svg" xmlns:xlink="http://www.w3.org/1999/xlink" width="500" zoomAndPan="magnify" viewBox="0 0 375 374.999991" height="500" preserveAspectRatio="xMidYMid meet" version="1.2"><defs/><g id="c8814a0c79"><g style="fill:#f2c744;fill-opacity:1;"><g transform="translate(337.483929, 101.890091)"><path style="stroke:none" d="M -233.359375 -44.203125 C -215.804688 -53.066406 -198.007812 -54.519531 -179.96875 -48.5625 C -160.800781 -42.4375 -144.289062 -29.390625 -130.4375 -9.421875 C -123.03125 1.203125 -116.671875 13.523438 -111.359375 27.546875 L -103.625 48.078125 L -46.625 48.078125 L -33.8125 17.640625 C -33.007812 15.546875 -32.609375 13.851562 -32.609375 12.5625 C -32.609375 11.269531 -32.890625 9.859375 -33.453125 8.328125 C -34.015625 6.804688 -35.222656 5.441406 -37.078125 4.234375 C -38.929688 3.023438 -40.984375 2.421875 -43.234375 2.421875 L -45.171875 2.421875 L -45.171875 0 L 6.53125 0 L 6.53125 2.421875 L 4.359375 2.421875 C 0.648438 2.421875 -3.015625 3.503906 -6.640625 5.671875 C -10.265625 7.847656 -13.285156 11.113281 -15.703125 15.46875 L -69.5625 138.421875 C -63.28125 152.597656 -56.597656 162.34375 -49.515625 167.65625 C -43.554688 172.164062 -37.878906 174.421875 -32.484375 174.421875 C -27.085938 174.421875 -22.054688 173.613281 -17.390625 172 L -16.90625 174.421875 C -28.5 180.378906 -39.609375 183.359375 -50.234375 183.359375 C -63.441406 183.359375 -75.28125 178.203125 -85.75 167.890625 C -96.0625 157.742188 -105.160156 143.085938 -113.046875 123.921875 L -148.078125 37.4375 C -161.285156 4.75 -174.816406 -17.710938 -188.671875 -29.953125 C -194.304688 -34.941406 -200.101562 -38.40625 -206.0625 -40.34375 C -212.019531 -42.28125 -217.050781 -43.25 -221.15625 -43.25 C -225.257812 -43.25 -229.242188 -42.765625 -233.109375 -41.796875 Z M -50.71875 58.46875 L -100 58.46875 L -83.09375 103.15625 C -82.289062 105.40625 -81.164062 108.503906 -79.71875 112.453125 C -78.269531 116.398438 -77.300781 119.175781 -76.8125 120.78125 Z M -50.71875 58.46875 "/></g></g><g style="fill:#18727d;fill-opacity:1;"><g transform="translate(37.500002, 273.101369)"><path style="stroke:none" d="M 233.359375 44.203125 C 215.804688 53.066406 198.007812 54.519531 179.96875 48.5625 C 160.800781 42.4375 144.289062 29.390625 130.4375 9.421875 C 123.03125 -1.203125 116.671875 -13.523438 111.359375 -27.546875 L 103.625 -48.078125 L 46.625 -48.078125 L 33.8125 -17.640625 C 33.007812 -15.546875 32.609375 -13.851562 32.609375 -12.5625 C 32.609375 -11.269531 32.890625 -9.859375 33.453125 -8.328125 C 34.015625 -6.804688 35.222656 -5.441406 37.078125 -4.234375 C 38.929688 -3.023438 40.984375 -2.421875 43.234375 -2.421875 L 45.171875 -2.421875 L 45.171875 0 L -6.53125 0 L -6.53125 -2.421875 L -4.359375 -2.421875 C -0.648438 -2.421875 3.015625 -3.503906 6.640625 -5.671875 C 10.265625 -7.847656 13.285156 -11.113281 15.703125 -15.46875 L 69.5625 -138.421875 C 63.28125 -152.597656 56.597656 -162.34375 49.515625 -167.65625 C 43.554688 -172.164062 37.878906 -174.421875 32.484375 -174.421875 C 27.085938 -174.421875 22.054688 -173.613281 17.390625 -172 L 16.90625 -174.421875 C 28.5 -180.378906 39.609375 -183.359375 50.234375 -183.359375 C 63.441406 -183.359375 75.28125 -178.203125 85.75 -167.890625 C 96.0625 -157.742188 105.160156 -143.085938 113.046875 -123.921875 L 148.078125 -37.4375 C 161.285156 -4.75 174.816406 17.710938 188.671875 29.953125 C 194.304688 34.941406 200.101562 38.40625 206.0625 40.34375 C 212.019531 42.28125 217.050781 43.25 221.15625 43.25 C 225.257812 43.25 229.242188 42.765625 233.109375 41.796875 Z M 50.71875 -58.46875 L 100 -58.46875 L 83.09375 -103.15625 C 82.289062 -105.40625 81.164062 -108.503906 79.71875 -112.453125 C 78.269531 -116.398438 77.300781 -119.175781 76.8125 -120.78125 Z M 50.71875 -58.46875 "/></g></g></g></svg>