<svg xmlns="http://www.w3.org/2000/svg" xmlns:xlink="http://www.w3.org/1999/xlink" width="500" zoomAndPan="magnify" viewBox="0 0 375 374.999991" height="500" preserveAspectRatio="xMidYMid meet" version="1.2"><defs/><g id="ab09353851"><g style="fill:#f2c744;fill-opacity:1;"><g transform="translate(331.191283, 105.481888)"><path style="stroke:none" d="M -223.578125 -42.359375 C -206.753906 -50.835938 -189.703125 -52.222656 -172.421875 -46.515625 C -154.054688 -40.648438 -138.242188 -28.15625 -124.984375 -9.03125 C -117.878906 1.15625 -111.785156 12.960938 -106.703125 26.390625 L -99.296875 46.0625 L -44.671875 46.0625 L -32.40625 16.890625 C -31.632812 14.890625 -31.25 13.269531 -31.25 12.03125 C -31.25 10.800781 -31.515625 9.453125 -32.046875 7.984375 C -32.585938 6.515625 -33.742188 5.203125 -35.515625 4.046875 C -37.296875 2.890625 -39.269531 2.3125 -41.4375 2.3125 L -43.28125 2.3125 L -43.28125 0 L 6.25 0 L 6.25 2.3125 L 4.15625 2.3125 C 0.613281 2.3125 -2.890625 3.351562 -6.359375 5.4375 C -9.835938 7.519531 -12.734375 10.644531 -15.046875 14.8125 L -66.65625 132.609375 C -60.632812 146.191406 -54.234375 155.53125 -47.453125 160.625 C -41.742188 164.9375 -36.300781 167.09375 -31.125 167.09375 C -25.957031 167.09375 -21.140625 166.320312 -16.671875 164.78125 L -16.203125 167.09375 C -27.304688 172.800781 -37.953125 175.65625 -48.140625 175.65625 C -60.796875 175.65625 -72.132812 170.71875 -82.15625 160.84375 C -92.03125 151.125 -100.75 137.085938 -108.3125 118.734375 L -141.875 35.875 C -154.53125 4.550781 -167.488281 -16.972656 -180.75 -28.703125 C -186.15625 -33.484375 -191.710938 -36.796875 -197.421875 -38.640625 C -203.128906 -40.492188 -207.945312 -41.421875 -211.875 -41.421875 C -215.8125 -41.421875 -219.632812 -40.957031 -223.34375 -40.03125 Z M -48.609375 56.015625 L -95.8125 56.015625 L -79.625 98.828125 C -78.84375 100.984375 -77.757812 103.953125 -76.375 107.734375 C -74.988281 111.515625 -74.0625 114.175781 -73.59375 115.71875 Z M -48.609375 56.015625 "/></g></g><g style="fill:#ffffff;fill-opacity:1;"><g transform="translate(43.793337, 269.509913)"><path style="stroke:none" d="M 223.578125 42.359375 C 206.753906 50.835938 189.703125 52.222656 172.421875 46.515625 C 154.054688 40.648438 138.242188 28.15625 124.984375 9.03125 C 117.878906 -1.15625 111.785156 -12.960938 106.703125 -26.390625 L 99.296875 -46.0625 L 44.671875 -46.0625 L 32.40625 -16.890625 C 31.632812 -14.890625 31.25 -13.269531 31.25 -12.03125 C 31.25 -10.800781 31.515625 -9.453125 32.046875 -7.984375 C 32.585938 -6.515625 33.742188 -5.203125 35.515625 -4.046875 C 37.296875 -2.890625 39.269531 -2.3125 41.4375 -2.3125 L 43.28125 -2.3125 L 43.28125 0 L -6.25 0 L -6.25 -2.3125 L -4.15625 -2.3125 C -0.613281 -2.3125 2.890625 -3.351562 6.359375 -5.4375 C 9.835938 -7.519531 12.734375 -10.644531 15.046875 -14.8125 L 66.65625 -132.609375 C 60.632812 -146.191406 54.234375 -155.53125 47.453125 -160.625 C 41.742188 -164.9375 36.300781 -167.09375 31.125 -167.09375 C 25.957031 -167.09375 21.140625 -166.320312 16.671875 -164.78125 L 16.203125 -167.09375 C 27.304688 -172.800781 37.953125 -175.65625 48.140625 -175.65625 C 60.796875 -175.65625 72.132812 -170.71875 82.15625 -160.84375 C 92.03125 -151.125 100.75 -137.085938 108.3125 -118.734375 L 141.875 -35.875 C 154.53125 -4.550781 167.488281 16.972656 180.75 28.703125 C 186.15625 33.484375 191.710938 36.796875 197.421875 38.640625 C 203.128906 40.492188 207.945312 41.421875 211.875 41.421875 C 215.8125 41.421875 219.632812 40.957031 223.34375 40.03125 Z M 48.609375 -56.015625 L 95.8125 -56.015625 L 79.625 -98.828125 C 78.84375 -100.984375 77.757812 -103.953125 76.375 -107.734375 C 74.988281 -111.515625 74.0625 -114.175781 73.59375 -115.71875 Z M 48.609375 -56.015625 "/></g></g></g></svg>